<?xml version="1.0" standalone="no"?><!DOCTYPE svg PUBLIC "-//W3C//DTD SVG 1.1//EN" "http://www.w3.org/Graphics/SVG/1.1/DTD/svg11.dtd"><svg t="1581656088797" class="icon" viewBox="0 0 1024 1024" version="1.1" xmlns="http://www.w3.org/2000/svg" p-id="7077" xmlns:xlink="http://www.w3.org/1999/xlink" width="200" height="200"><defs><style type="text/css"></style></defs><path d="M512 42.666667c258.133333 0 469.333333 211.2 469.333333 469.333333s-211.2 469.333333-469.333333 469.333333S42.666667 770.133333 42.666667 512 253.866667 42.666667 512 42.666667z m0 853.333333c211.2 0 384-172.8 384-384S723.2 128 512 128 128 300.8 128 512s172.8 384 384 384z" fill="#1296db" p-id="7078"></path><path d="M697.6 537.6L640 586.666667V341.333333c0-23.466667-19.2-42.666667-42.666667-42.666666s-42.666667 19.2-42.666666 42.666666v341.333334c0 17.066667 10.666667 32 25.6 38.4 6.4 2.133333 10.666667 4.266667 17.066666 4.266666 10.666667 0 21.333333-4.266667 27.733334-10.666666l128-113.066667c17.066667-14.933333 19.2-42.666667 4.266666-59.733333-14.933333-19.2-42.666667-21.333333-59.733333-4.266667M443.733333 302.933333c-14.933333-6.4-34.133333-4.266667-44.8 6.4l-128 113.066667c-17.066667 14.933333-19.2 42.666667-4.266666 59.733333 14.933333 17.066667 42.666667 19.2 59.733333 4.266667l57.6-51.2V682.666667c0 23.466667 19.2 42.666667 42.666667 42.666666s42.666667-19.2 42.666666-42.666666V341.333333c0-17.066667-10.666667-32-25.6-38.4" fill="#1296db" p-id="7079"></path></svg>